<?xml version="1.0" encoding="UTF-8"?>
<svg width="106px" height="106px" viewBox="0 0 106 106" version="1.1" xmlns="http://www.w3.org/2000/svg" xmlns:xlink="http://www.w3.org/1999/xlink">
    <!-- Generator: Sketch 51.2 (57519) - http://www.bohemiancoding.com/sketch -->
    <title>icon_streaming</title>
    <desc>Created with Sketch.</desc>
    <defs>
        <linearGradient x1="83.5807168%" y1="71.0546875%" x2="6.24989289%" y2="18.8020833%" id="linearGradient-1">
            <stop stop-color="#15AFFC" offset="0%"></stop>
            <stop stop-color="#0565FA" offset="100%"></stop>
        </linearGradient>
    </defs>
    <g id="Homepage" stroke="none" stroke-width="1" fill="none" fill-rule="evenodd">
        <g transform="translate(-556.000000, -2186.000000)" id="Group-7">
            <g transform="translate(120.000000, 2158.000000)">
                <g id="icon_streaming" transform="translate(436.000000, 28.000000)">
                    <path d="M106,53.4015152 C106,72.6921959 90.3621894,88.3333333 71.0681818,88.3333333 C51.7741742,88.3333333 36.1363636,72.6921959 36.1363636,53.4015152 C36.1363636,34.0991905 51.7741742,18.469697 71.0681818,18.469697 C90.3621894,18.469697 106,34.0991905 106,53.4015152" id="Fill-1" fill="url(#linearGradient-1)" opacity="0.504076087"></path>
                    <path d="M86.2989899,96.0625 L96.2565657,96.0625 L96.2565657,89.4375 L86.2989899,89.4375 L86.2989899,96.0625 Z M16.5959596,76.1875 L82.979798,76.1875 L82.979798,29.8125 L16.5959596,29.8125 L16.5959596,76.1875 Z M3.31919192,96.0625 L13.2767677,96.0625 L13.2767677,89.4375 L3.31919192,89.4375 L3.31919192,96.0625 Z M3.31919192,16.5625 L13.2767677,16.5625 L13.2767677,9.9375 L3.31919192,9.9375 L3.31919192,16.5625 Z M3.31919192,66.25 L13.2767677,66.25 L13.2767677,59.625 L3.31919192,59.625 L3.31919192,66.25 Z M3.31919192,56.3125 L13.2767677,56.3125 L13.2767677,49.6875 L3.31919192,49.6875 L3.31919192,56.3125 Z M3.31919192,46.375 L13.2767677,46.375 L13.2767677,39.75 L3.31919192,39.75 L3.31919192,46.375 Z M3.31919192,26.5 L13.2767677,26.5 L13.2767677,19.875 L3.31919192,19.875 L3.31919192,26.5 Z M3.31919192,36.4375 L13.2767677,36.4375 L13.2767677,29.8125 L3.31919192,29.8125 L3.31919192,36.4375 Z M3.31919192,86.125 L13.2767677,86.125 L13.2767677,79.5 L3.31919192,79.5 L3.31919192,86.125 Z M3.31919192,76.1875 L13.2767677,76.1875 L13.2767677,69.5625 L3.31919192,69.5625 L3.31919192,76.1875 Z M86.2989899,26.5 L96.2565657,26.5 L96.2565657,19.875 L86.2989899,19.875 L86.2989899,26.5 Z M86.2989899,36.4375 L96.2565657,36.4375 L96.2565657,29.8125 L86.2989899,29.8125 L86.2989899,36.4375 Z M86.2989899,46.375 L96.2565657,46.375 L96.2565657,39.75 L86.2989899,39.75 L86.2989899,46.375 Z M86.2989899,56.3125 L96.2565657,56.3125 L96.2565657,49.6875 L86.2989899,49.6875 L86.2989899,56.3125 Z M86.2989899,66.25 L96.2565657,66.25 L96.2565657,59.625 L86.2989899,59.625 L86.2989899,66.25 Z M86.2989899,86.125 L96.2565657,86.125 L96.2565657,79.5 L86.2989899,79.5 L86.2989899,86.125 Z M86.2989899,76.1875 L96.2565657,76.1875 L96.2565657,69.5625 L86.2989899,69.5625 L86.2989899,76.1875 Z M86.2989899,16.5625 L96.2565657,16.5625 L96.2565657,9.9375 L86.2989899,9.9375 L86.2989899,16.5625 Z M96.2565657,0 L96.2565657,6.625 L86.2989899,6.625 L86.2989899,0 L82.979798,0 L82.979798,26.5 L16.5959596,26.5 L16.5959596,0 L13.2767677,0 L13.2767677,6.625 L3.31919192,6.625 L3.31919192,0 L0,0 L0,106 L3.31919192,106 L3.31919192,99.375 L13.2767677,99.375 L13.2767677,106 L16.5959596,106 L16.5959596,79.5 L82.979798,79.5 L82.979798,106 L86.2989899,106 L86.2989899,99.375 L96.2565657,99.375 L96.2565657,106 L99.5757576,106 L99.5757576,0 L96.2565657,0 Z" id="Fill-3" fill="#0E0954"></path>
                    <path d="M41.0692641,61.4873994 L41.0692641,45.3139675 L55.8936623,53.4015152 L41.0692641,61.4873994 Z M60.1636613,51.9410325 L41.8660422,41.960513 C41.6215195,41.8274394 41.3470552,41.7575758 41.0692641,41.7575758 L39.4058442,41.7575758 C38.4876364,41.7575758 37.7424242,42.5011245 37.7424242,43.4209957 L37.7424242,63.3820346 C37.7424242,64.3002424 38.4876364,65.0454545 39.4058442,65.0454545 L41.0692641,65.0454545 C41.3470552,65.0454545 41.6215195,64.9755909 41.8660422,64.8425173 L60.1636613,54.8619978 C60.697619,54.5708994 61.030303,54.0103268 61.030303,53.4015152 C61.030303,52.79104 60.697619,52.232131 60.1636613,51.9410325 Z" id="Fill-5" fill="#0E0954"></path>
                    <polygon id="Fill-6" fill="#0E0954" points="20.0757576 3.21212121 80.3030303 3.21212121 80.3030303 0 20.0757576 0"></polygon>
                    <polygon id="Fill-7" fill="#0E0954" points="20.0757576 10.4393939 40.1515152 10.4393939 40.1515152 7.22727273 20.0757576 7.22727273"></polygon>
                    <polygon id="Fill-8" fill="#0E0954" points="41.7575758 92.3484848 44.969697 92.3484848 44.969697 89.1363636 41.7575758 89.1363636"></polygon>
                    <polygon id="Fill-9" fill="#0E0954" points="47.3787879 92.3484848 50.5909091 92.3484848 50.5909091 89.1363636 47.3787879 89.1363636"></polygon>
                    <polygon id="Fill-10" fill="#0E0954" points="54.6060606 92.3484848 57.8181818 92.3484848 57.8181818 89.1363636 54.6060606 89.1363636"></polygon>
                    <polygon id="Fill-11" fill="#0E0954" points="20.0757576 99.5757576 80.3030303 99.5757576 80.3030303 96.3636364 20.0757576 96.3636364"></polygon>
                </g>
            </g>
        </g>
    </g>
</svg>