<?xml version="1.0" encoding="UTF-8"?>
<svg width="110px" height="118px" viewBox="0 0 110 118" version="1.1" xmlns="http://www.w3.org/2000/svg" xmlns:xlink="http://www.w3.org/1999/xlink">
    <!-- Generator: Sketch 51.2 (57519) - http://www.bohemiancoding.com/sketch -->
    <title>icon_security</title>
    <desc>Created with Sketch.</desc>
    <defs>
        <linearGradient x1="83.5807168%" y1="71.0546875%" x2="6.24989289%" y2="18.8020833%" id="linearGradient-1">
            <stop stop-color="#15AFFC" offset="0%"></stop>
            <stop stop-color="#0565FA" offset="100%"></stop>
        </linearGradient>
    </defs>
    <g id="Homepage" stroke="none" stroke-width="1" fill="none" fill-rule="evenodd">
        <g transform="translate(-146.000000, -2174.000000)" id="Group-7">
            <g transform="translate(120.000000, 2158.000000)">
                <g id="icon_security" transform="translate(26.000000, 16.000000)">
                    <path d="M76.5217391,79.0680272 C76.5217391,100.567746 59.3936232,118 38.2608696,118 C17.1281159,118 0,100.567746 0,79.0680272 C0,57.5553314 17.1281159,40.1360544 38.2608696,40.1360544 C59.3936232,40.1360544 76.5217391,57.5553314 76.5217391,79.0680272" id="Fill-1" fill="url(#linearGradient-1)" opacity="0.504076087"></path>
                    <g id="Group-4" transform="translate(22.000000, 0.000000)" fill="#0E0954">
                        <path d="M77.6376812,45.755102 L73.9621578,45.755102 L73.9621578,31.1134694 C73.9621578,15.9758514 61.5958595,3.66040816 46.3957327,3.66040816 L42.7202093,3.66040816 C27.5200825,3.66040816 15.1537842,15.9758514 15.1537842,31.1134694 L15.1537842,45.755102 L11.4782609,45.755102 L11.4782609,31.1134694 C11.4782609,13.9571363 25.4930314,0 42.7202093,0 L46.3957327,0 C63.6229106,0 77.6376812,13.9571363 77.6376812,31.1134694 L77.6376812,45.755102 Z" id="Fill-3"></path>
                        <path d="M65.6811594,40.1360544 L62.0277778,40.1360544 L62.0277778,30.8545918 C62.0277778,21.6418121 54.6534269,14.1479592 45.5875604,14.1479592 L41.9341787,14.1479592 C32.8683122,14.1479592 25.4939614,21.6418121 25.4939614,30.8545918 L25.4939614,40.1360544 L21.8405797,40.1360544 L21.8405797,30.8545918 C21.8405797,19.5961777 30.8552989,10.4353741 41.9341787,10.4353741 L45.5875604,10.4353741 C56.6664402,10.4353741 65.6811594,19.5961777 65.6811594,30.8545918 L65.6811594,40.1360544 Z" id="Fill-5"></path>
                        <path d="M34.1780508,78.7644628 L44.377356,88.8250417 L63.7060072,69.7592902 L60.8101787,66.9028495 L44.377356,83.1121602 L37.0738793,75.9080221 L34.1780508,78.7644628 Z M44.377356,93.9183673 L29.0144928,78.7644628 L37.0738793,70.8146964 L44.377356,78.0188345 L60.8101787,61.8095238 L68.8695652,69.7592902 L44.377356,93.9183673 Z" id="Fill-7"></path>
                        <path d="M43.3623188,105.959184 C29.2968944,105.959184 17.8550725,94.4366958 17.8550725,80.2721088 C17.8550725,66.1075219 29.2968944,54.585034 43.3623188,54.585034 C46.7620704,54.585034 50.0670807,55.2492284 53.1844306,56.5574344 L51.7815321,59.9444587 C49.110559,58.8234014 46.2792547,58.2546161 43.3623188,58.2546161 C31.306501,58.2546161 21.4989648,68.1312964 21.4989648,80.2721088 C21.4989648,92.4129213 31.306501,102.289602 43.3623188,102.289602 C55.4181366,102.289602 65.2256729,92.4129213 65.2256729,80.2721088 L68.8695652,80.2721088 C68.8695652,94.4366958 57.4277433,105.959184 43.3623188,105.959184" id="Fill-9"></path>
                        <path d="M7.62560386,47.8421769 C5.61076389,47.8421769 3.97222222,49.4982707 3.97222222,51.5346939 L3.97222222,110.614966 C3.97222222,112.651389 5.61076389,114.307483 7.62560386,114.307483 L80.6932367,114.307483 C82.7080767,114.307483 84.3466184,112.651389 84.3466184,110.614966 L84.3466184,51.5346939 C84.3466184,49.4982707 82.7080767,47.8421769 80.6932367,47.8421769 L7.62560386,47.8421769 Z M80.6932367,118 L7.62560386,118 C3.59592391,118 0.31884058,114.687812 0.31884058,110.614966 L0.31884058,51.5346939 C0.31884058,47.4618476 3.59592391,44.1496599 7.62560386,44.1496599 L80.6932367,44.1496599 C84.7229167,44.1496599 88,47.4618476 88,51.5346939 L88,110.614966 C88,114.687812 84.7229167,118 80.6932367,118 Z" id="Fill-11"></path>
                        <polygon id="Fill-13" points="2.88626985 113.986395 0.31884058 111.390278 7.04971774 104.584195 7.04971774 58.3681864 0.31884058 51.5621025 2.88626985 48.9659864 10.6811594 56.8479713 10.6811594 106.10441"></polygon>
                        <polygon id="Fill-15" points="85.4325707 113.986395 77.6376812 106.10441 77.6376812 56.8479713 85.4325707 48.9659864 88 51.5621025 81.2691228 58.3681864 81.2691228 104.584195 88 111.390278"></polygon>
                        <polygon id="Fill-17" points="79.2318841 64.2176871 86.4057971 64.2176871 86.4057971 61.0068027 79.2318841 61.0068027"></polygon>
                        <polygon id="Fill-19" points="79.2318841 71.4421769 86.4057971 71.4421769 86.4057971 68.2312925 79.2318841 68.2312925"></polygon>
                        <polygon id="Fill-20" points="79.2318841 78.6666667 86.4057971 78.6666667 86.4057971 75.4557823 79.2318841 75.4557823"></polygon>
                        <polygon id="Fill-21" points="79.2318841 85.8911565 86.4057971 85.8911565 86.4057971 82.6802721 79.2318841 82.6802721"></polygon>
                        <polygon id="Fill-22" points="79.2318841 93.1156463 86.4057971 93.1156463 86.4057971 89.9047619 79.2318841 89.9047619"></polygon>
                        <polygon id="Fill-23" points="79.2318841 100.340136 86.4057971 100.340136 86.4057971 97.1292517 79.2318841 97.1292517"></polygon>
                        <polygon id="Fill-24" points="1.91304348 64.2176871 9.08695652 64.2176871 9.08695652 61.0068027 1.91304348 61.0068027"></polygon>
                        <polygon id="Fill-25" points="1.91304348 71.4421769 9.08695652 71.4421769 9.08695652 68.2312925 1.91304348 68.2312925"></polygon>
                        <polygon id="Fill-26" points="1.91304348 78.6666667 9.08695652 78.6666667 9.08695652 75.4557823 1.91304348 75.4557823"></polygon>
                        <polygon id="Fill-27" points="1.91304348 85.8911565 9.08695652 85.8911565 9.08695652 82.6802721 1.91304348 82.6802721"></polygon>
                        <polygon id="Fill-28" points="1.91304348 93.1156463 9.08695652 93.1156463 9.08695652 89.9047619 1.91304348 89.9047619"></polygon>
                        <polygon id="Fill-29" points="1.91304348 100.340136 9.08695652 100.340136 9.08695652 97.1292517 1.91304348 97.1292517"></polygon>
                    </g>
                </g>
            </g>
        </g>
    </g>
</svg>