<?xml version="1.0" encoding="UTF-8"?>
<svg width="134px" height="109px" viewBox="0 0 134 109" version="1.1" xmlns="http://www.w3.org/2000/svg" xmlns:xlink="http://www.w3.org/1999/xlink">
    <!-- Generator: Sketch 51.2 (57519) - http://www.bohemiancoding.com/sketch -->
    <title>icon_bypass</title>
    <desc>Created with Sketch.</desc>
    <defs>
        <linearGradient x1="83.5807168%" y1="71.0546875%" x2="6.24989289%" y2="18.8020833%" id="linearGradient-1">
            <stop stop-color="#15AFFC" offset="0%"></stop>
            <stop stop-color="#0565FA" offset="100%"></stop>
        </linearGradient>
    </defs>
    <g id="Homepage" stroke="none" stroke-width="1" fill="none" fill-rule="evenodd">
        <g transform="translate(-966.000000, -2184.000000)" id="Group-7">
            <g transform="translate(120.000000, 2158.000000)">
                <g id="icon_bypass" transform="translate(846.000000, 26.000000)">
                    <path d="M88.2634731,44.0808824 C88.2634731,68.4240249 68.5071657,88.1617647 44.1317365,88.1617647 C19.7563074,88.1617647 0,68.4240249 0,44.0808824 C0,19.7230462 19.7563074,0 44.1317365,0 C68.5071657,0 88.2634731,19.7230462 88.2634731,44.0808824" id="Fill-1" fill="url(#linearGradient-1)" opacity="0.504076087"></path>
                    <path d="M20.7893304,85.7573529 L12.4735983,85.7573529 L12.4735983,77.3419118 L20.7893304,77.3419118 L24.9471965,77.3419118 L33.2629287,77.3419118 L33.2629287,85.7573529 L24.9471965,85.7573529 L20.7893304,85.7573529 Z M12.4735983,60.5110294 L12.4735983,52.0955882 L20.7893304,52.0955882 L24.9471965,52.0955882 L33.2629287,52.0955882 L33.2629287,60.5110294 L24.9471965,60.5110294 L20.7893304,60.5110294 L12.4735983,60.5110294 Z M45.7365269,98.3805147 L24.9471965,98.3805147 L24.9471965,89.9650735 L33.2629287,89.9650735 L37.4207948,89.9650735 L45.7365269,89.9650735 L45.7365269,85.7573529 L37.4207948,85.7573529 L37.4207948,77.3419118 L45.7365269,77.3419118 L45.7365269,73.1341912 L37.4207948,73.1341912 L33.2629287,73.1341912 L24.9471965,73.1341912 L24.9471965,64.71875 L33.2629287,64.71875 L37.4207948,64.71875 L45.7365269,64.71875 L45.7365269,60.5110294 L37.4207948,60.5110294 L37.4207948,52.0955882 L45.7365269,52.0955882 L45.7365269,47.8878676 L37.4207948,47.8878676 L33.2629287,47.8878676 L24.9471965,47.8878676 L24.9471965,39.4724265 L45.7365269,39.4724265 L45.7365269,35.2647059 L24.9471965,35.2647059 L20.7893304,35.2647059 L4.15786609,35.2647059 L4.15786609,39.4724265 L20.7893304,39.4724265 L20.7893304,47.8878676 L12.4735983,47.8878676 L8.31573217,47.8878676 L0,47.8878676 L0,52.0955882 L8.31573217,52.0955882 L8.31573217,60.5110294 L4.15786609,60.5110294 L4.15786609,64.71875 L8.31573217,64.71875 L12.4735983,64.71875 L20.7893304,64.71875 L20.7893304,73.1341912 L12.4735983,73.1341912 L8.31573217,73.1341912 L0,73.1341912 L0,77.3419118 L8.31573217,77.3419118 L8.31573217,85.7573529 L4.15786609,85.7573529 L4.15786609,89.9650735 L8.31573217,89.9650735 L12.4735983,89.9650735 L20.7893304,89.9650735 L20.7893304,98.3805147 L0,98.3805147 L0,102.588235 L20.7893304,102.588235 L24.9471965,102.588235 L45.7365269,102.588235 L45.7365269,98.3805147 Z" id="Fill-3" fill="#0E0954"></path>
                    <path d="M121.482635,60.5110294 L113.137725,60.5110294 L108.965269,60.5110294 L96.4479042,60.5110294 L96.4479042,52.0955882 L108.965269,52.0955882 L113.137725,52.0955882 L121.482635,52.0955882 L121.482635,60.5110294 Z M121.482635,77.3419118 L121.482635,85.7573529 L113.137725,85.7573529 L108.965269,85.7573529 L96.4479042,85.7573529 L96.4479042,77.3419118 L108.965269,77.3419118 L113.137725,77.3419118 L121.482635,77.3419118 Z M134,52.0955882 L134,47.8878676 L125.65509,47.8878676 L121.482635,47.8878676 L113.137725,47.8878676 L113.137725,39.4724265 L129.827545,39.4724265 L129.827545,35.2647059 L113.137725,35.2647059 L108.965269,35.2647059 L92.2754491,35.2647059 L92.2754491,39.4724265 L108.965269,39.4724265 L108.965269,47.8878676 L96.4479042,47.8878676 L92.2754491,47.8878676 L92.2754491,52.0955882 L92.2754491,60.5110294 L92.2754491,64.71875 L96.4479042,64.71875 L108.965269,64.71875 L108.965269,73.1341912 L96.4479042,73.1341912 L92.2754491,73.1341912 L92.2754491,77.3419118 L92.2754491,85.7573529 L92.2754491,89.9650735 L96.4479042,89.9650735 L108.965269,89.9650735 L108.965269,98.3805147 L92.2754491,98.3805147 L92.2754491,102.588235 L108.965269,102.588235 L113.137725,102.588235 L129.827545,102.588235 L129.827545,98.3805147 L113.137725,98.3805147 L113.137725,89.9650735 L121.482635,89.9650735 L125.65509,89.9650735 L134,89.9650735 L134,85.7573529 L125.65509,85.7573529 L125.65509,77.3419118 L129.827545,77.3419118 L129.827545,73.1341912 L125.65509,73.1341912 L121.482635,73.1341912 L113.137725,73.1341912 L113.137725,64.71875 L121.482635,64.71875 L125.65509,64.71875 L134,64.71875 L134,60.5110294 L125.65509,60.5110294 L125.65509,52.0955882 L134,52.0955882 Z" id="Fill-5" fill="#0E0954"></path>
                    <polygon id="Fill-7" fill="#0E0954" points="58.5748503 102.588235 79.4371257 102.588235 79.4371257 98.5808824 58.5748503 98.5808824"></polygon>
                    <polygon id="Fill-9" fill="#0E0954" points="58.5748503 86.5588235 79.4371257 86.5588235 79.4371257 82.5514706 58.5748503 82.5514706"></polygon>
                    <polygon id="Fill-10" fill="#0E0954" points="58.5748503 68.9264706 79.4371257 68.9264706 79.4371257 64.9191176 58.5748503 64.9191176"></polygon>
                    <polygon id="Fill-11" fill="#0E0954" points="58.5748503 52.8970588 79.4371257 52.8970588 79.4371257 48.8897059 58.5748503 48.8897059"></polygon>
                    <polygon id="Fill-12" fill="#0E0954" points="58.5748503 36.8676471 79.4371257 36.8676471 79.4371257 32.8602941 58.5748503 32.8602941"></polygon>
                    <polygon id="Fill-13" fill="#0E0954" points="50.5508982 109 54.5628743 109 54.5628743 28.0514706 50.5508982 28.0514706"></polygon>
                    <polygon id="Fill-14" fill="#0E0954" points="83.4491018 109 87.4610778 109 87.4610778 28.0514706 83.4491018 28.0514706"></polygon>
                </g>
            </g>
        </g>
    </g>
</svg>