<?xml version="1.0" encoding="UTF-8"?>
<svg width="115px" height="24px" viewBox="0 0 115 24" version="1.1" xmlns="http://www.w3.org/2000/svg" xmlns:xlink="http://www.w3.org/1999/xlink">
    <!-- Generator: Sketch 51.2 (57519) - http://www.bohemiancoding.com/sketch -->
    <title>vyprvpn_logo</title>
    <desc>Created with Sketch.</desc>
    <defs></defs>
    <g id="Homepage" stroke="none" stroke-width="1" fill="none" fill-rule="evenodd">
        <g transform="translate(-120.000000, -58.000000)" fill="#FFFFFF" id="vyprvpn_logo">
            <g transform="translate(120.000000, 58.000000)">
                <g id="logotype" transform="translate(0.166900, 0.400600)">
                    <path d="M0,0.0006 L4.36064735,0.0006 L8.32947685,11.5134045 L12.4537527,0.0006 L16.8144,0.0006 L10.1668871,16.4695 L6.24230452,16.4695 L0,0.0006 Z M17.6934,0.0006 L22.0703484,0.0006 L26.1957883,11.8594528 L30.2263302,0.0006 L34.5241,0.0006 L27.7351141,16.9574867 C26.5311331,19.9463939 24.6069758,22.0748758 21.959149,23.34 L19.9668748,20.5024151 C21.7938054,19.6953632 23.1217942,18.3827309 23.9525876,16.5633451 L17.6934,0.0006 Z M35.674,0.673323237 C37.8432644,0.22287703 40.2413321,0 42.8676208,0 C48.6284558,0 51.508,2.60824777 51.508,7.82767589 C51.508,13.5902201 48.8712318,16.4694395 43.5976953,16.4694395 C42.2894996,16.4694395 41.023222,16.2078522 39.8017737,15.6846777 L39.8017737,22.4314 L35.674,22.4314 L35.674,0.673323237 Z M39.8018,12.1726245 L39.8018,3.57775853 C40.5801975,3.4311285 41.6560978,3.3584 43.0364872,3.3584 C45.9655208,3.3584 47.428,4.83643072 47.428,7.79601129 C47.428,11.2781813 46.1483307,13.0178 43.5837525,13.0178 C42.1923014,13.0178 40.9289336,12.7356838 39.8018,12.1726245 Z M54.0726,16.4695 L54.0726,0.0006 L57.2636345,0.0006 L57.7788809,2.10268831 C59.2110912,0.701491609 60.7236451,0.0006 62.3212,0.0006 L62.3212,3.358428 C60.7859404,3.358428 59.4107856,4.05169485 58.1974822,5.44292071 L58.1974822,16.4695 L54.0726,16.4695 Z M64.3088,0.0006 L66.1770687,0.0006 L72.1556451,15.044256 L78.1639135,0.0006 L80.0316,0.0006 L73.0731868,16.4695 L71.1734795,16.4695 L64.3088,0.0006 Z M82.0489,0.673336314 C84.2187424,0.224063414 86.4613593,0.0006 88.7732574,0.0006 C94.0147629,0.0006 96.6393,2.60825968 96.6393,7.82709815 C96.6393,13.5902255 94.0013724,16.469443 88.7284283,16.469443 C87.419653,16.469443 85.7376903,16.2078559 83.6825404,15.6846818 L83.6825404,22.4314 L82.0489,22.4314 L82.0489,0.673336314 Z M83.6826,14.0523956 L83.6826,1.85224426 C85.6032715,1.60121475 87.2881528,1.4757 88.7419014,1.4757 C92.9459539,1.4757 95.0506,3.58129797 95.0506,7.79601302 C95.0506,12.5339017 92.9354743,14.9005 88.7110449,14.9005 C87.3195915,14.9005 85.6446076,14.6177985 83.6826,14.0523956 Z M100.2129,16.4695 L100.2129,0.0006 L101.378458,0.0006 L101.583391,2.10268831 C104.292353,0.701491609 106.646175,0.0006 108.648933,0.0006 C112.210231,0.0006 113.9935,1.730248 113.9935,5.19071703 L113.9935,16.4695 L112.35578,16.4695 L112.35578,5.14379542 C112.35578,2.69800629 110.991693,1.47569824 108.262354,1.47569824 C106.299768,1.47569824 104.161941,2.16955161 101.845962,3.55960442 L101.845962,16.4695 L100.2129,16.4695 Z" id="Fill-1"></path>
                </g>
            </g>
        </g>
    </g>
</svg>