<?xml version="1.0" encoding="UTF-8"?>
<svg width="93px" height="16px" viewBox="0 0 93 16" version="1.1" xmlns="http://www.w3.org/2000/svg" xmlns:xlink="http://www.w3.org/1999/xlink">
    <!-- Generator: Sketch 51.2 (57519) - http://www.bohemiancoding.com/sketch -->
    <title>stars</title>
    <desc>Created with Sketch.</desc>
    <defs></defs>
    <g id="Homepage" stroke="none" stroke-width="1" fill="none" fill-rule="evenodd">
        <g transform="translate(-754.000000, -927.000000)" fill="#FF9502" id="Group-6">
            <g transform="translate(753.000000, 877.000000)">
                <g id="stars" transform="translate(1.000000, 50.000000)">
                    <polygon id="Star" points="8.5 12.75 3.50382536 15.3766445 4.45800981 9.81332223 0.416019611 5.87335555 6.00191268 5.06167777 8.5 0 10.9980873 5.06167777 16.5839804 5.87335555 12.5419902 9.81332223 13.4961746 15.3766445"></polygon>
                    <polygon id="Star-Copy" points="27.5 12.75 22.5038254 15.3766445 23.4580098 9.81332223 19.4160196 5.87335555 25.0019127 5.06167777 27.5 0 29.9980873 5.06167777 35.5839804 5.87335555 31.5419902 9.81332223 32.4961746 15.3766445"></polygon>
                    <polygon id="Star-Copy-2" points="46.5 12.75 41.5038254 15.3766445 42.4580098 9.81332223 38.4160196 5.87335555 44.0019127 5.06167777 46.5 0 48.9980873 5.06167777 54.5839804 5.87335555 50.5419902 9.81332223 51.4961746 15.3766445"></polygon>
                    <polygon id="Star-Copy-3" points="65.5 12.75 60.5038254 15.3766445 61.4580098 9.81332223 57.4160196 5.87335555 63.0019127 5.06167777 65.5 0 67.9980873 5.06167777 73.5839804 5.87335555 69.5419902 9.81332223 70.4961746 15.3766445"></polygon>
                    <polygon id="Star-Copy-4" points="84.5 12.75 79.5038254 15.3766445 80.4580098 9.81332223 76.4160196 5.87335555 82.0019127 5.06167777 84.5 0 86.9980873 5.06167777 92.5839804 5.87335555 88.5419902 9.81332223 89.4961746 15.3766445"></polygon>
                </g>
            </g>
        </g>
    </g>
</svg>